<svg xmlns="http://www.w3.org/2000/svg" viewBox="0 0 3477.92 1834.16" fill="#005498" fill-opacity="0.5">
    <g id="America">
        <path  d="M154.8,328.44c7.87-6.05,21.18-3.71,30.53-3.71H770.91c2,0,4-.11,6,0,9.42.53,16,10.5,22.23,16.73l27.33,27.33L840.72,383c4.33,4.33,10.14,8.57,10.14,15.27,0,6.2-4.91,10-8.94,14.06L828,426.27l-27.87,27.88L772.23,482c-6.48,6.48-12.94,12.39-12.94,22.21,0,14.31,17.1,26.37,26.28,35.54l92.48,92.49c6.34,6.34,14.14,10.34,23.39,8.07,7.73-1.89,12.9-8.35,18.29-13.75L969,577.32c6-6,11-11.51,11.34-20.72.28-7.49,0-15.05,0-22.55,0-19.39-1.25-39.23,0-58.59.53-8.28,8.3-14.74,16.62-11.55,4.82,1.85,8.45,6.89,12,10.45l14.15,14.15L1078.62,544q28.31,28.31,56.6,56.6c8.61,8.61,25,19.81,13.34,32.38-19,20.4-39.52,39.52-59.21,59.2L981.87,799.68l-89.51,89.51c-6,6-11.69,12.32-18,17.95-4.79,4.32-9.76,4-15.6,4H790c-6.33,0-13.71-.92-20,.64-12.72,3.18-17,14.4-17,26.18v34.68c0,4.42-.09,8.71,1.5,12.95,3.72,9.93,15,17.76,22.24,25l54.84,54.84,26.88,26.88c7.71,7.71,15.88,19.27,26,23.89,6.73,3.08,15.35,2,22.56,2h176.07c6.24,0,11.88-.67,17,3.9,3.92,3.51,7.49,7.49,11.21,11.21l93.08,93.08c5.42,5.42,11,9.49,19.12,9.84,7.85.34,15.78,0,23.63,0h36.7c2.24,0,7.41-1,9.43,0,.91.46-1.26.45-1,.66,2.17,1.87,4.11,4.1,6.13,6.13l12.26,12.26,44.56,44.56,6.93,6.93c.46.45,4.87,4.38,3.77,1.79.24.57,0,1.67,0,2.29.28,4,0,8.11,0,12.1,0,21.25,1,42.72,0,63.94-.37,8.25-6.89,12.94-12.3,18.35l-29.35,29.36-97.68,97.67-107.88,107.89-68.12,68.12c-6.76,6.76-11.9,12.74-12,23.24-.31,21.53,0,43.1,0,64.63,0,9.19-.06,18.38,0,27.56a37.77,37.77,0,0,0,.55,7.72c1.66,7.76,10.41,12.77,9.52,21-.82,7.61-7.06,10.94-14,11.08-2.62,0-5.25,0-7.87,0-1.85,0-5.89.8-7.57,0-.84-.4.45-.12.18-.32,1.41,1-1.49-2.47-1.41-2.37A71.76,71.76,0,0,0,1012,1855l-12.44-12.44-21.44-21.43-5.66-5.67c-.69-.69-7-6.64-5.66-3.6-.12-.29.07-.74,0-1-.42-1.77,0-4.19,0-6v-312c0-33.9,1.23-68.06,0-101.94a23.74,23.74,0,0,0-4.64-13.86c-7.31-9.74-17.73-18.06-26.33-26.66l-12.76-12.76-6.37-6.37c-2.1-2.1-6.13-4.81-7.44-7.44-2.19-4.38-.66-12.71-.66-17.53v-81.48c0-4.88-1.41-11.74,1.6-15.69,3.95-5.19,9.71-9.71,14.32-14.32,5.92-5.92,12.28-11.2,13.49-19.92,1.9-13.8-9-24.83-22.37-25.33-9.06-.34-18.23.61-27.28,0-7.16-.48-11.51-6.41-16.24-11.15l-14-14-28-28-26.94-26.94c-7.2-7.2-13.48-15.35-24.33-16.15-19.4-1.44-39.37-.08-58.82-.08-4.11,0-8.24.09-12.35,0-6.68-.15-10.61-3.25-15.34-8L636.5,989.31,523.75,876.55l-27.37-27.36-13.14-13.14c-4.87-4.88-12.08-9.82-13.25-17-.62-3.8-.2-7.88-.2-11.71v-161c0-6.39.07-12.43-3.63-18.12-6.15-9.47-16.62-17.38-24.59-25.34l-28.18-28.19-27.1-27.1c-7.2-7.2-14.62-17.82-25.16-20.08-4.64-1-9.7-.55-14.41-.55H243.18c-13.89,0-27.92-.6-41.8,0-10.41.46-16.17,6.93-23.13,13.89L151,568.21c-7,7-15.14,15.89-24.88,7.23-2-1.77-3.8-3.81-5.69-5.69-15.31-15.31-31.14-30.24-46-46-4.86-5.16-5-10.16-5-16.65v-93.8c0-2.89,0-5.46,1.24-8.22,2.68-5.85,9.73-10.22,14.49-14.46l13.68-12.19,57-50.79c4.82-4.29-2.28-11.34-7.07-7.07L89.47,373.4c-11.73,10.46-29.67,20.7-30.06,38-.47,20.63,0,41.32,0,61.95v32.5c0,8.31-.09,15.91,5.78,22.73,12.94,15,28.33,28.44,42.35,42.45,5.32,5.32,10.92,12.65,17.84,16A22.47,22.47,0,0,0,148,584.85c9.45-6.83,17.5-17.08,25.74-25.32l12.6-12.6c4.45-4.44,8.31-9.47,15-9.91,1.15-.07,2.34,0,3.49,0h22.78c42.35,0,85-1.54,127.34,0,5.75.21,9.33,2.82,13.37,6.86L395.48,571l56.37,56.37c4.3,4.3,7.69,7.88,7.94,14.15.08,2,0,4.12,0,6.17V809.19c0,5-.45,10.37,1.13,15.19,3.35,10.26,14.47,18,21.82,25.31l27.37,27.37L624,990.9l55.83,55.83c7.23,7.23,13.61,15.51,24.49,16.32,2.35.17,4.72.07,7.07.07,21.44,0,42.95-.55,64.38,0,7.73.2,11.82,4.75,17.14,10.07l26.93,26.94,28,28c8.73,8.73,17.12,19.26,27,26.67,9.23,6.93,23.1,4.64,34,4.64,5,0,10.64-.71,14.86,2.64,9,7.15,3,16.34-3.11,22.47l-12.27,12.27c-3.37,3.37-8.69,6.85-9.65,11.72-1.07,5.37,0,12.07,0,17.56V1309c0,5-1.5,12.77.17,17.49,1.59,4.48,7.56,8.47,10.86,11.77l27.63,27.63c7.89,7.9,19.34,15.42,19.54,27.33.67,38.51,0,77.1,0,115.61v284.94c0,5.64-.51,11.55,0,17.17.4,4.36,3.57,6.55,6.62,9.6l23.18,23.18,23.18,23.18c2.68,2.68,4.9,6,8.77,6.62,2.08.34,4.52,0,6.64,0,11.87,0,24.22.38,30.74-11.69a22.49,22.49,0,0,0,.89-19.41c-2.58-6-8-9.13-8.34-16.19-.37-7.22,0-14.56,0-21.78v-69.53c0-5.47-.07-9.92,4-14.44,1.7-1.89,3.63-3.63,5.43-5.43l69.69-69.69,108.7-108.7,97.17-97.17L1362,1411c7-7,13.54-12.71,13.91-23.63.7-21,0-42.15,0-63.17,0-6.36,1.87-15.27-2.53-20.34-14.37-16.53-31.39-31.39-46.88-46.88l-24.06-24.06c-3.63-3.63-5.79-6.56-10.84-6.69-10.48-.26-21,0-31.47,0h-32.92a19.65,19.65,0,0,1-15-6.14l-92.77-92.77c-9.47-9.47-16.85-19.12-31.48-19.12H914c-6.74,0-13.64.44-20.36,0s-10.67-5.54-15.18-10.06l-14-14-28-28-54.84-54.84C775,994.69,763.54,987.09,763,977c-.22-4.37,0-8.81,0-13.18,0-10-.76-20.26,0-30.21,1-12.38,11.25-12.49,20.62-12.49h69.87c7.62,0,16.13,1,23-3,2.87-1.66,5.1-4,7.42-6.35l24.71-24.71,97.59-97.59,104.71-104.71,34.26-34.27c5.66-5.66,13.79-11.9,16.49-19.66a22.63,22.63,0,0,0-4.53-22.31c-8.51-9.92-18.69-18.79-27.93-28L1073.72,525l-56.6-56.6c-6.13-6.13-11.78-13.45-20.8-14.94a22.58,22.58,0,0,0-18.67,5.48c-7.17,6.51-7.32,14.91-7.32,23.74v68.21c0,6.65-.91,11.75-5.76,16.74-15.84,16.29-32.15,32.15-48.22,48.21-4.5,4.51-10.22,12.57-16.57,14.63-8,2.59-13.1-3.7-18-8.63L785.91,526c-4.08-4.08-8.36-8-12.28-12.28-3.76-4.07-5.63-9.16-3.21-14.5,2.5-5.52,9-10.18,13.17-14.4l13.94-13.93c18.57-18.57,37.57-36.81,55.75-55.76,5.56-5.79,8.84-13.05,7.16-21.23-2.13-10.36-12.13-17.44-19.21-24.51L812.81,341q-6.55-6.57-13.12-13.12c-4.06-4.06-7.87-8.66-13.19-11.1-5.83-2.67-12.59-2-18.84-2H181.3c-10.56,0-22.68-1.74-31.55,5.07C144.72,323.67,149.69,332.36,154.8,328.44Z" transform="translate(-59.2 -39.48)"/>
    </g>
    <g id="Groenlandia">
        <path  d="M855.09,267.7h74.07a71.7,71.7,0,0,1,8,0c3.61.42,5.66,3.39,8.1,5.82l8.43,8.44L972,300.23l70.28,70.28c11.23,11.23,22.88,22.15,33.74,33.74,6.25,6.67-.28,10.84-5.33,15.89l-8.09,8.08c-2.44,2.44-5.42,7-9.26,7-3.48,0-5.88-3.61-8.1-5.82l-8.44-8.45-18.29-18.29-35.18-35.18q-16.89-16.87-33.77-33.77c-5-5-9.59-7.35-16.54-7.35H850.65a9.65,9.65,0,0,1-4.77-.71c-3.48-1.79-6.64-6.37-9.4-9.12-3.07-3.08-7-6.1-9.6-9.6-2.87-3.94-1-6.55,1.72-9.95s5.68-7,8.52-10.45l8.51-10.45c2.51-3.08,5.08-8,9.46-8.37,6.38-.47,6.43-10.48,0-10-8.4.63-12.14,5.91-17.14,12.05L821.53,289.9c-4.31,5.29-7.7,10.61-5.54,17.7,2.22,7.29,10.28,12.85,15.48,18s9.42,10.36,17.12,10.7c.86,0,1.73,0,2.59,0h68.47c5,0,10-.15,15,0,3.1.1,4.93,1.48,7.16,3.72q9.51,9.49,19,19l76,76c5.14,5.15,9.93,10.78,17.91,10.08,7.43-.66,12.11-6.95,17-11.86,5.16-5.16,12.76-10.58,15.89-17.28a15.63,15.63,0,0,0-2.62-16.87c-5.72-6.65-12.54-12.61-18.74-18.81l-19-19-38.65-38.65-38-37.95-19-19c-4.35-4.35-8.09-7.77-14.52-8.05-11.64-.49-23.4,0-35,0h-47C848.65,257.7,848.64,267.7,855.09,267.7Z" transform="translate(-59.2 -39.48)"/><path d="M842.48,78.44h47.66c6.91,0,14.69,1.23,20.27-3.7,3.59-3.17,6.84-6.84,10.23-10.22,2.72-2.73,6.85-8.83,10.72-9.63a17.54,17.54,0,0,1,3.32,0h100.74a15.41,15.41,0,0,1,3,0c3.91.81,8,6.91,10.74,9.65l4.78,4.78c1.66,1.66,5.69,4.34,6.17,6.72.65,3.26-6.4,8.16-8.47,10.23l-11.3,11.3-22.61,22.6-45.21,45.21L949.88,188l-10.6,10.59c-2.38,2.38-5.62,7.17-9,7.84-4.61.9-10.31,0-15,0H847.85c-1.54,0-3.62.35-4.8-.83-2.19-2.2-.82-9.49-.82-12.25a32.62,32.62,0,0,1,0-5.23c.58-3.51,5.22-6.62,7.68-9.08L872,156.9l11.07-11.07c2.91-2.91,6.31-5.68,7.42-9.81,2.41-9-5.92-14.85-11.47-20.4-5.24-5.23-9.73-11.61-17.68-11.9-4.31-.16-8.66,0-13,0a40.25,40.25,0,0,1-5.38,0c-3.12-.44-5.38-3.75-7.51-5.88-1.49-1.49-4.13-3.28-5.11-5.11-1.28-2.37-.33-3.25,1.38-5,2.26-2.36,7.43-8.94,10.69-9.25,6.35-.62,6.41-10.62,0-10-4.58.44-7.44,2.27-10.73,5.43s-7.52,6.22-10,10c-5.74,8.81,1.39,15.69,7.34,21.64,4.9,4.91,8.64,8.17,15.74,8.17H859.9c2.4,0,3.24.38,5.25,2.14,4.33,3.79,8.23,8.23,12.31,12.31,1.38,1.38,3.88,3,3.43,5.19-.4,2-3.49,4-4.85,5.4l-12.45,12.45-23.52,23.52c-3.24,3.24-6.76,6.18-7.61,10.91a34,34,0,0,0-.23,5.88c0,4.29-.27,8.68.06,13,.53,6.9,5.89,11.59,12.65,11.94,5.63.28,11.35,0,17,0h61c2.31,0,4.64.08,7,0,6.85-.27,10.53-4.77,15.11-9.35l48-48,48.75-48.74c8-8,16.26-15.79,24-24,6.94-7.35,4.44-14.82-2-21.28l-10.94-10.94c-3.4-3.4-6.66-7.68-11.57-8.84a24.07,24.07,0,0,0-5.43-.32h-85.6c-5.94,0-11.91-.17-17.85,0-4.7.13-7.87,1.82-11.26,5.06-3.95,3.76-7.73,7.72-11.59,11.58-2.24,2.25-5,6.35-8.25,6.91-2.41.41-5.25,0-7.69,0h-51C836.05,68.44,836,78.44,842.48,78.44Z" transform="translate(-59.2 -39.48)"/><path d="M1007.78,171.47c9.51,0,19.06.28,28.56,0,2.73-.09,4-.85,6.12-2.82,4.1-3.88,8-8,12-12,7.45-7.45,15.28-14.66,22.42-22.41,3.57-3.88,2.14-10.85,2.14-15.79,0-2.25-.34-4.53,2.33-5.37,1.72-.55,4.17-.1,5.93-.1,4.72,0,10.2.76,14.85-.33,5.29-1.24,8.89-6.1,12.55-9.76,4.83-4.83,9.45-10.4,14.73-14.73,4.18-3.43,9.48-2.25,14.75-2.25h127.31c1.27,0,2.56.07,3.84,0,4.49-.23,7.34-2.15,10.49-5.15,4.94-4.71,9.67-9.66,14.49-14.49l13.11-13.11c1.65-1.65,3-3.27,5.34-3.6a51.7,51.7,0,0,1,6.93,0h98.8c2.6,0,5.3-.22,7.89,0a9.77,9.77,0,0,1,1.21,0c2.61.51,4.44,3.24,6.21,5l6.93,6.94,13.18,13.18c4.62,4.62,9.14,10.23,14.37,14.16,3.33,2.49,6.86,2.79,10.78,2.79h64.4c1.86,0,5.36-.61,6.74,1,2.85,3.33-4.6,8.33-6.45,10.18q-7,6.94-13.91,13.91l-27.14,27.13c-6.75,6.76-19.59,15.1-15.4,26.24,1.72,4.59,6.37,8,9.74,11.36l13.71,13.71-1.46-3.53v75.26l1.46-3.54-23.7,23.7c-6,6.05-15.85,12.55-16.32,21.79-.39,7.85,0,15.81,0,23.67l1.47-3.53-42.8,42.79,3.53-1.46h-37c-4.61,0-9.28-.24-13.89,0-6.66.34-10.35,5-14.79,9.39l-17.55,17.56-70.93,70.92-17.56,17.56-8.42,8.43c-3.86,3.85-5.32,3-9-.67l-35.39-35.39-17.35-17.35-8.33-8.33c-1.77-1.77-4.53-3.68-5-6.28s0-5.54,0-8.08V330.4c0-3.94.07-7.89,0-11.82-.19-9.36-8.18-14.8-14.34-21l-71.11-71.11c-3.74-3.74-6.9-6.36-12.37-6.59-2.38-.1-4.78,0-7.16,0h-28.39l3.54,1.46-50.47-49.9,1.47,3.54c0-1.91.84-3.39,2.87-3.55,6.37-.52,6.43-10.53,0-10-6.81.55-15.16,7-12.69,14.88,1.31,4.21,7.37,8.23,10.44,11.26l10.52,10.4,20.4,20.18c4.42,4.37,9,11.59,15.58,11.73,10.14.22,20.32,0,30.46,0a21.12,21.12,0,0,1,3.73,0c3.91.75,7.9,6.56,10.63,9.29l25.35,25.35,25.34,25.35,12.68,12.67,5.63,5.63c2.17,2.18,5.4,4.46,7,7,2.32,3.64.85,10.81.85,14.81v91.29c0,1.59-.08,3.2,0,4.79.41,8.77,9.15,14.6,14.87,20.32l50,50c6.26,6.25,13.55,14.7,23.06,8.63,4.19-2.67,7.74-7.33,11.23-10.82l13.34-13.35,50.57-50.56,25.28-25.28L1374,393.11l6.32-6.32c2-2.05,4.7-5.86,7.65-6.46,2.16-.44,4.86,0,7,0H1411c9,0,18.35.74,27.33,0a7.31,7.31,0,0,0,4.15-1.46c4.57-3.36,8.5-8.51,12.52-12.53L1475,346.26c3.29-3.28,7.43-6.47,10.2-10.19,1.48-2,1.46-3.59,1.46-5.89V314a32.58,32.58,0,0,1,0-4.84c.67-4.21,6.29-7.95,9.21-10.87l24.4-24.4c1.66-1.66,4.06-3.33,4.77-5.69.64-2.16.18-4.93.18-7.15V201.18c0-2.84.12-5.71,0-8.54-.14-3.22-1.31-4.37-3.53-6.58l-11.65-11.66c-2-2-4.35-4-6.17-6.17-2.53-3-1.05-4.4,1.4-6.85l50.09-50.09c5.87-5.87,13.89-11.78,10.63-21.1-1.9-5.46-6.89-8.33-12.45-8.54-7.43-.29-14.92,0-22.35,0h-46c-4.72,0-6.37-2.09-10-5.7q-12.48-12.49-25-25c-5-5.06-9.4-11.09-17.07-11.4-5.27-.22-10.59,0-15.86,0h-92.72c-2,0-4-.07-5.92,0-6.9.25-10.56,4.68-15.17,9.29l-12.42,12.42c-4.06,4.06-8,8.78-12.42,12.42-2.53,2.07-3,2.22-5.68,2.22H1135.69c-1,0-1.91-.05-2.86,0-5.23.28-8.35,3-11.91,6.58l-12.63,12.63c-2.57,2.57-5.81,7.27-9.49,7.86-2.15.34-4.62,0-6.8,0-4.41,0-9.65-.72-13.94.58C1066.63,107,1069,120.87,1069,130l1.46-3.53L1034,162.93l3.54-1.46h-29.8C1001.35,161.47,1001.34,171.47,1007.78,171.47Z" transform="translate(-59.2 -39.48)"/>
    </g>
    <g id="EuroAsia_Africa">
        <path d="M1761.77,463.78l75.42-75.42,37.65-37.65c11.84-11.85,23.15-25.33,36-36,8.77-7.28,21.53-4.42,32.28-4.42h51.93c12.67,0,26-1.2,38.64,0,8.92.85,14.75,9.22,20.86,15.32l17.64,17.64c5.32,5.33,16.23,12.62,18.52,19.84,3.24,10.2-12,8-17.85,8-7.15,0-14.37-.32-21.51,0s-13.28,3.52-15.85,10.45c-4.3,11.64,6.12,19.28,13.4,26.56l18,18.06c4.86,4.85,9.84,11.8,16.34,14.52,12.39,5.19,21.09-7.11,28.74-14.77l38.35-38.35c5.48-5.48,9-8.85,16.2-8.85h92.87c8.48,0,17.17.55,25.64,0,5.37-.35,8.87-2.56,12.7-6.08,6.8-6.24,13.11-13.11,19.63-19.63l37.86-37.86,39.26-39.26c7.37-7.37,18-22.55,28.34-24.19,12.82-2,27.59,0,40.54,0h45.46c4.39,0,8.81.16,12.79-2.15,6.18-3.57,11-10.26,16-15.27l19.82-19.81c4.77-4.77,9.38-10.93,16.33-11.66a89.38,89.38,0,0,1,9.26,0H2800.5c1.51,0,4.42-.56,5.87,0,7.77,3,6.26,9.17,6.26,15.51,0,12.46-4.15,34.06,12.14,38.24,7.48,1.92,16.75.47,24.32.47h115.66c1.68,0,5.06-.66,6.68,0,14.55,6-.55,32.25,12.09,42.21,5.47,4.32,12.47,3.49,19,3.49h183.44c22.59,0,45.91-1.68,68.45,0,1.15.08,2.67-.33,3.78,0,8.06,2.34,16.22,13.73,22,19.49,5.44,5.44,10.78,12.39,17.17,16.68,6.87,4.6,17,3,24.92,3h98.86c10.79,0,22.56-1.35,33.27,0,8.63,1.09,14.76,9.81,20.69,15.74l39.15,39.14c2.69,2.7,6.13,5.34,8.39,8.39,2.61,3.54,2.79,1.39,2.79,7s-.12,3.49-2.73,7c-5.57,7.44-13.95,13.94-20.52,20.52l-17.79,17.78c-4.25,4.26-9.44,11.08-15.38,12.7-5.26,1.43-12.95,0-18.34,0h-188c-7.44,0-15-.37-22.44,0-6.58.33-10.41,3-15.1,7.52-13,12.55-25.55,25.55-38.32,38.31L3033.5,669.25l-76.63,76.62-18.44,18.45c-5.61,5.6-13.52,16.54-21.4,18.78-5.88,1.67-14.5,0-20.59,0-13.42,0-31.2-2.2-32.71,16-.55,6.55,0,13.37,0,19.93V962.35c0,5.72,1.23,13,0,18.66-1.81,8.25-15.81,18.29-21.68,24.16l-19.92,19.92-38.43,38.42-76.84,76.85-18.5,18.5c-4.33,4.33-16.15,17.68-18.75,4.25-.64-3.31,0-7.4,0-10.74v-49.81c0-10.24,1.92-22.51-.47-32.6-1.35-5.72-5.79-9.36-9.78-13.36l-19.5-19.49-18.1-18.1c-4.19-4.19-8.05-8.34-14.27-8.8-12.68-.93-22.84,15-30.69,22.8L2539,1070.77l-37.76,37.76-18.18,18.18-8.39,8.39c-2.79,2.8-7.43,9.8-11.19,11.19-9.57,3.53-18.2-9.74-24-15.57l-19.82-19.82-38.22-38.22L2305,996.25l-76.43-76.44c-7.46-7.46-15.95-19.55-28.12-15-5.46,2-9.36,7.2-13.37,11.21-4.56,4.56-10.92,9.19-13.48,15.29-5.19,12.39,7.11,21.08,14.76,28.74l38.31,38.31,18.45,18.44c2.13,2.13,7.49,5.74,8.51,8.52,2.85,7.77-3.52,12-8.23,16.69l-37,37c-3.8,3.8-5.47,6.86-11.09,6.86-6,0-8.65-4.43-12.69-8.47l-19.75-19.74-38.08-38.08-38.08-38.08-18.34-18.34c-4.17-4.17-8.16-9.48-14.07-11.13a16.17,16.17,0,0,0-19.18,9.6c-1.93,5.07-1.08,11.5-1.08,16.8,0,15.06-3.79,32.92,7.52,44.45,25.32,25.82,51.16,51.16,76.73,76.73l38.37,38.37c5.93,5.94,19.08,14.71,15.63,24.09-1,2.77-6.37,6.37-8.49,8.49L2154.44,1182c-12.7,12.69-26.07,25-38.21,38.21-3.95,4.3-5.85,8.38-6.1,14.17-.39,9.29,0,18.68,0,28v138.27c0,1.76.49,4.28,0,6-2.14,7.37-11.84,14.36-17.08,19.59l-19.5,19.5c-7.81,7.81-19.36,15.31-20,27.23-.4,7.23,0,14.6,0,21.85,0,10-.68,13.9-7.45,20.67l-63.33,63.33-59.65,59.65c-5.5,5.49-10.85,5-16.3-.42l-29.9-29.9-36-36c-5-5-15.34-11.91-16.65-19.4-1-5.61,0-12.29,0-18V1314.77c0-6.54-.51-12-5.28-17.2-6.23-6.89-13.21-13.22-19.77-19.78l-71.39-71.39c-6.26-6.26-12.28-13-18.87-18.87-7.2-6.46-16.36-5.06-25.32-5.06h-49.85c-11.84,0-25,1.62-36.73,0-8.18-1.13-15.31-11.81-20.76-17.26l-36.63-36.62c-5.58-5.58-18.22-14-19.72-22.45-1.55-8.74,0-19.14,0-28V981c0-3.45-.69-7.77,0-11.18,2.13-10.38,17.21-20.83,24.52-28.14l76.83-76.83c5.85-5.85,12.18-14.91,20.77-16,3.86-.48,8.07,0,11.94,0h138.51c2.51,0,5.53-.47,8,0,5.26,1,10.36,7.58,14.13,11.36,6.38,6.38,12.55,13.09,19.2,19.2,7.4,6.79,14.51,6,23.69,6h93.33c26,0,52.09.71,78.07,0,12.12-.33,18.06-7.72,18.23-19.49.17-11.35,4.14-32.88-6.59-40.65-8.24-6-24.18-3.1-33.58-3.1h-49.79c-8.42,0-10-.43-17.54-7.43-13.23-12.27-25.61-25.62-38.37-38.37l-38.37-38.38c-7.83-7.82-17.46-23.12-30.22-21.58a16.35,16.35,0,0,0-14.21,17.19c.36,4.8,2.89,8.14,6,11.51,6.33,6.81,13.18,13.18,19.75,19.75l18.33,18.33c4.62,4.61,9.12,8.06,4.36,15.39-2.15,3.3-6.22,6.22-9,9-4.07,4.07-6.06,7.72-12,7.72-5.62,0-7.28-3-11.08-6.84l-19.16-19.16-37-36.95c-7.66-7.66-12.69-10.15-23.25-10.15-14.83,0-31.65-1.37-32.18,18.23-.1,3.59.75,7.93,0,11.41-.35,1.61-.3,2-.64,2.46-1.49,2.25-6.87,6-9.46,8.57l-30.51,30.51c-2.42,2.42-6.8,8.41-8,8.9-1.88.79-5.62,0-7.65,0h-24.89c-5.57,0-13.52,1.46-18.93,0-7-1.92-7.11-6.23-7.11-11.79V762.46c0-6.06-1.32-10,3-14.34,4.47-4.47,9.58-3,15.8-3,13.52,0,27.5,1,41,0,18.46-1.45,16.84-21.52,16-35.31a18.48,18.48,0,0,0-3.9-10.91c-3.35-4.32-15.59-12-9.67-18.12,4.41-4.57,16.08-1.26,21.76-2,5.43-.75,8.8-3.5,12.62-7.24,6.47-6.34,12.82-12.81,19.22-19.22l37.06-37.06c6.33-6.33,12.89-15.87,22.2-16.85,5-.53,10.43,0,15.5,0,30.46,0,61,.68,91.44,0,5.17-.12,9.43-.86,13.67-4.29,13-10.5,24.32-24.2,36.13-36l17.81-17.81c5.53-5.54,12.59-10.9,16.94-17.4a16.12,16.12,0,0,0-3.33-21.54c-4.58-3.64-10-3.42-15.49-3.42h-24.77c-6.6,0-13,1.76-17.76-3-5.17-5.16-3-14-3-21.1,0-3.62-.37-7.49,0-11.09.6-5.88,4.23-9.72,8.48-14,7.21-7.21,19.1-15.18,16.39-27-1.95-8.46-9.66-12.67-17.85-12.43-4.92.15-6.07,1.73-9.83,5.49l-16.55,16.55-14.34,14.34c-4.44,4.45-13.16,10.39-15.76,16-1.39,3-.69,7.24-.69,10.4v48.79c0,5.57.88,12,0,17.54-.91,5.75-4.41,8-9.89,8.68-7.59,1-16,0-23.69,0s-13.61-.12-14.47-9.91c-.66-7.46.15-13.89-6.93-18.79-7.4-5.13-15.48-2.68-21.55,3-2.22,2.08-5.64,7.32-8.36,8.36-6.28,2.39-9.88-1.42-13.74-5.28-2.5-2.5-5.47-4.67-6.46-8.18-.93-3.32,0-8.59,0-12.11v-44c0-6.43-10-6.44-10,0v44c0,5.21-1.6,13.59.68,18.43,2.37,5,11.94,13.28,16.48,16.18,9.81,6.27,17.85.29,24.89-6.74,5.09-5.1,13.36-10.26,15,.41.49,3.23-.26,6.64.14,9.9,2.28,18.45,23.53,14.73,36.88,14.73,13.15,0,30.08,1.46,31-16.42.69-12.92,0-26.07,0-39V476.3c0-2.85-1.32-9.39,0-12-.94,1.84,3.84-1.53,2.56-.56a53.59,53.59,0,0,0,5.06-5l7-7,15.42-15.42c4.8-4.8,9.95-12,15.64-15.65,1.34-.86-.79-.75,1.45-1.25a8.71,8.71,0,0,1,1.91,0c7.46.34,6.52,7.28,3.24,11.56-7.32,9.54-21.35,15.75-22.17,29-.43,6.91,0,14,0,20.89,0,14,1.36,26.71,18.62,27.13,13.59.33,28.9-2.34,42.26,0,11.17,1.95,3.54,11.19-1,15.7l-19.18,19.18-37,37c-6.42,6.41-9.13,8.6-16.85,8.6h-18.24c-29.12,0-58.65-1.49-87.73,0-10,.51-15.17,7.59-21.86,14.29l-37.06,37.06-17.84,17.84c-5.1,5.1-9.72,10.79-17.16,11.36s-15.56-1.66-22,3a16.24,16.24,0,0,0-4.23,21.42c3.43,5.57,11.35,9.16,12.78,15.94.63,3,0,6.78,0,9.84,0,7.55.42,14.45-8.65,16-6.68,1.1-14.54,0-21.3,0h-23.87c-5.65,0-11.15-.26-15.89,3.48-9.37,7.38-6.09,24.95-6.09,35.3,0,14-.79,28.22,0,42.18.91,16,14.82,16.31,27.1,16.31h26.3c5,0,11.12,1,16.08,0,4.09-.79,6.2-3.91,9.12-6.83l16.48-16.47,15.5-15.51c4.58-4.58,13.2-10.36,15.87-16.1,2.58-5.54-.78-12.77.69-18.52,2.46-9.64,15-6.65,22.18-6.65,6.38,0,7.38-.56,13.45,4.49,6.84,5.69,12.86,12.86,19.16,19.16l36.94,36.94c7.35,7.35,15.27,17.89,27,13,6.18-2.59,10.9-9.09,15.52-13.71,4.15-4.15,9.77-8.32,11.64-14.14,4-12.58-9-21.24-16.61-28.88l-18.33-18.34c-5-5-18.68-14.33-14-22.72,4.2-7.44,22.87,14.41,25.52,17l19.89,19.9,38.38,38.37,18.47,18.48c4.31,4.31,8,8.74,14.14,10,4,.81,8.35.37,12.39.37h49.71c9.63,0,28.33-4.26,28.33,10.18,0,9.43,4.65,30.42-7.77,33.06-8.44,1.79-19.23,0-27.82,0H1858.05c-3.18,0-7,.61-10.15,0-9.1-1.78-17.06-13.2-23.44-19.58-7-7-13.32-16.39-23.94-17-2.8-.17-5.68,0-8.48,0H1652.82c-8.55,0-17.4-1.29-24.38,4.68-14.1,12.1-26.69,26.7-39.83,39.84l-38.42,38.42c-11.83,11.83-26.19,23.3-36.35,36.58-3.19,4.16-3.79,8.3-3.9,13.26-.25,11.89,0,23.83,0,35.73v93.81c0,7.85,1.87,13.66,7.54,19.33L1549,1152l32.26,32.26c6.09,6.09,12,8.18,20.55,8.18h90.7c7.39,0,10.38,3.1,15.38,8.1l29.61,29.61,68,68c4.19,4.2,8.19,7.08,8.83,13.23.81,7.87,0,16.27,0,24.17v192.56c0,7.73-.33,15.54,0,23.26s4,12.18,9.14,17.32l67.2,67.19c5.62,5.63,12.68,15.51,20.87,17.45,9.72,2.31,15.61-4.77,21.66-10.82l64.5-64.5c19.56-19.56,39.34-38.94,58.7-58.7,7.12-7.27,7.22-14.82,7.22-24.58,0-6.62-1.7-15.68,0-22.08,1.86-7,10.71-13.56,15.68-18.54l19.5-19.5c7.79-7.78,20.64-16.15,21.4-28.09.14-2.23,0-4.52,0-6.75V1260c0-8.06-1.72-18.31,0-26.23,2.24-10.3,18.39-21.78,25.81-29.21l18.4-18.39c6.06-6.06,13.67-12,18.56-19,6.62-9.52,1.23-17.81-5.84-24.88q-19.89-19.9-39.79-39.79l-76.73-76.73c-4.81-4.81-12.85-10.72-14.54-17.52-.63-2.53,0-6.21,0-8.78V974.32c0-2.07-.37-4.49,0-6.53,2.28-12.71,12.78-2,17.26,2.51l38.08,38.08,77.58,77.58c7.41,7.41,15.62,15.89,26.66,9.4,6.28-3.69,11.63-11,16.71-16.07l19.21-19.21c7.83-7.83,23.83-18.11,23.83-30.51,0-4.5-1.87-7.92-4.62-11.3-5.78-7.12-13.36-13.37-19.86-19.87l-39.73-39.73c-5.72-5.72-17-13.11-17-21.25,0-5.82,3.56-7.79,7.56-11.79,2.64-2.64,5.61-6.92,8.81-8.81,9.57-5.65,17.52,6.54,23.88,12.89l19.81,19.82,39.64,39.63,76.44,76.44,77.85,77.85c7.41,7.41,15.46,18.28,27.3,13.32,6.51-2.73,11.53-9.73,16.4-14.6l19.58-19.58,75.52-75.52,19.58-19.58c4-4,7.56-8,14.06-5.59,3.74,1.38,8.35,8.36,11.13,11.14l18.1,18.1c6.05,6,17.35,13.93,19.86,22.36.84,2.84,0,7.14,0,10.08v72c0,11.55,3.27,25.8,18.56,23.36,5-.78,8.11-3.93,11.57-7.3,6.73-6.54,13.28-13.28,19.92-19.92l39.85-39.85,76.84-76.84c13.28-13.28,26.71-26.42,39.85-39.85,4.56-4.66,7.22-8.74,7.53-15.36,1.17-25.13,0-50.6,0-75.75V809.73c0-8.19-1.05-16.63,10.4-16.63h25.61c6.74,0,12.65.29,18.22-4.29,13.39-11,25.15-25,37.4-37.28l39.73-39.74,76.63-76.62,78-78,38.31-38.31,18.45-18.45c5.95-5.95,14.39-17.74,22.7-20.2,4.56-1.35,11.59,0,16.28,0h145.57c22.25,0,44.77,1.05,67,0,5.69-.27,9.56-2.18,13.78-6.05,12.79-11.73,24.66-24.66,36.94-36.94,7.74-7.74,21.72-17,17.59-29.87-1.78-5.53-7-9.48-10.9-13.4l-19.58-19.58c-12.47-12.46-24.42-26.22-37.75-37.75-4.09-3.54-8.33-4.51-13.49-4.68-10.87-.35-21.82,0-32.69,0H3321.6c-4.11,0-8.57.51-12.65,0-8.56-1.07-14.46-9.5-20.36-15.4-10.24-10.24-19-23.79-34.47-23.79h-253.5c-1.84,0-4.72.55-6.49,0-7-2.22-6.7-7.35-6.7-13,0-13.42,2.07-31.58-16.31-32.65-26.17-1.52-52.87,0-79.08,0h-47.79c-8.64,0-20,2.87-21.62-8.77-1.63-12,4.92-31.08-4.72-40.72-5.63-5.63-13.27-4.73-20.5-4.73H2578.93c-2.25,0-4.54-.13-6.79,0-9.2.51-14.07,7-20.25,13.17l-18.41,18.4c-5.47,5.48-12.29,15.18-19.94,17.32-3.34.94-8.33,0-11.77,0h-50.1c-10.61,0-22.82-1.74-33.3.38-5.45,1.11-8.83,4.69-12.65,8.51l-19.63,19.63q-19.64,19.64-39.26,39.26L2309,347.32c-6.91,6.9-15.71,19.76-25.63,21.38-11.44,1.87-24.77,0-36.33,0-28.08,0-56.7-1.65-84.74,0-10.36.61-16.34,9.18-23.2,16l-39.77,39.77c-4,4-7.56,8-14.14,5.68-3-1.06-7.37-7.37-9.72-9.72L2056,401c-4.25-4.24-19.32-17.19-5.5-19.94,1.8-.36,4,0,5.86,0,11.32,0,33,4.27,41.34-5.6,5.67-6.67,4.59-15.31-.77-21.69-11.38-13.53-25.49-25.48-38-38-6.78-6.79-12.49-15-22.7-15.54-3.58-.2-7.23,0-10.82,0h-95c-3.84,0-7.72-.18-11.55,0-8,.39-12.24,4.53-17.73,10L1754.7,456.71C1750.14,461.26,1757.21,468.34,1761.77,463.78Z" transform="translate(-59.2 -39.48)"/><path d="M3093.31,723.12c-6.78,6.78-13.65,13.49-20.35,20.35-4.39,4.5-6.57,11-1.88,16.26s13.69,3.79,20.12,3.79h27.35a37.49,37.49,0,0,0,6.62-.2,11.05,11.05,0,0,0,8.79-13.43c-1-3.92-4.35-6.48-7.12-9.18L3115,729.17c-3.13-3-6.41-7.46-10.75-8.77-4.12-1.25-7.74.17-11,2.72-5,4,2.08,11,7.07,7.07,1.67-1.32,17.37,15.62,19.39,17.59s6.86,5.14,2.53,5.74c-6.54.91-13.87,0-20.47,0-6.9,0-14.24.73-21.11,0-3.59-.38-1.58-2.08.67-4.33l19-19C3104.94,725.64,3097.87,718.56,3093.31,723.12Z" transform="translate(-59.2 -39.48)"/><path d="M3065,783.8v14.27l1.46-3.54-40.91,40.92,3.53-1.47H3010c-2.28,0-4.6-.13-6.87,0-7.52.44-12.69,8.14-17.6,13-5.8,5.79-12.84,11.37-17.72,17.94-4.38,5.89-1.83,11.73,2.8,16.36,4.42,4.42,9.57,12,16.19,12.84,7.34.9,12.21-6.23,16.81-10.83,3-3.05,6-6.17,9.16-9.16,1.53-1.47,2.54-2.75,4.51-3.09,3-.51,6.45,0,9.46,0,6.29,0,13,.7,19.27,0,3.38-.38,5.33-3.25,7.62-5.53l7.93-7.93,15.22-15.23,7.5-7.5c2.13-2.12,3.93-3.54,4.21-6.61.33-3.52,0-7.25,0-10.79,0-1.86-.08-2.42.78-3.94,2.1-3.73,6.67-5.8,8.85-9.57,2-3.55,1.46-8,1.45-12s.62-8.48-.81-12.24c-3-7.85-11.39-7-18.29-7-8,0-14.4,1.95-15.44,11-.73,6.38,9.27,6.33,10,0,.2-1.75,9.45-1,10.85-1,3.08,0,3.16-.14,3.68,2.77a34,34,0,0,1,0,5.53,48.41,48.41,0,0,1,0,5.52c-.31,2.6-1,3.14-2.81,5.07-2.41,2.54-5.41,4.8-7.06,7.92-2.72,5.15-1.23,13.38-1.23,19l1.47-3.53-37.47,37.46,3.54-1.46c-9.36,0-18.73-.16-28.08,0-8.68.14-13.56,7.33-19.3,13.07l-5.63,5.63c-2.6,2.59-3.71,5.49-6.88,2.93a78.89,78.89,0,0,1-5.85-5.86,41.66,41.66,0,0,1-3.26-3.25c-1.75-2.24-1.73-1.8.11-4.05,3.7-4.54,8.5-8.5,12.65-12.65l7-7c1.71-1.71,4-5.18,6.35-5.9,1.1-.34,2.87,0,4,0h8.94c4.23,0,8.77.49,13,0,4.42-.51,7.82-5.73,10.8-8.7l11.56-11.56,11.84-11.84,7.54-7.54c2-2,3.85-3.42,4.2-6.27.56-4.61,0-9.62,0-14.27C3075,777.37,3065,777.36,3065,783.8Z" transform="translate(-59.2 -39.48)"/>
    </g>
    <g id="Oceania">
        <path d="M2776.64,1216.18c4.86,0,10.72.88,15.39-.73,3.31-1.14,5.65-4,8-6.35l24.51-24.51,11.29-11.29c1.64-1.64,3.08-3.77,5.47-4.16,4.63-.76,10,0,14.74,0,3.88,0,9.32-1,13.11,0,4,1.07,2.26,10.21,2.26,13.37v16.12l1.46-3.53-67.68,67.69,3.53-1.47h-4.34l3.53,1.47-35.15-35.58,1.47,3.53c0-2.86-1.58-14.21,2.36-14.56,6.36-.57,6.42-10.57,0-10-9.11.81-12.15,7.35-12.25,15.68,0,4-1.13,9.05,1.35,12.42,2.85,3.86,7.12,7.2,10.5,10.62l18.23,18.45c2.79,2.83,5.79,7.47,10,8,2,.25,5,.28,6.86-.68,3.83-2,7.35-7.12,10.4-10.17l10.36-10.36,18.54-18.54,20-20c4.29-4.3,10.73-8.32,10.85-14.77.15-8.4.43-17,0-25.39a12.54,12.54,0,0,0-12.24-12.26c-3.22-.17-6.51,0-9.74,0-8.13,0-20.6-2.32-27.17,3.59-4.7,4.22-9,9-13.46,13.45l-24,24.06c-1.61,1.6-3.34,4.06-5.28,5.27-3.15,2-9.3.67-12.88.67C2770.21,1206.18,2770.2,1216.18,2776.64,1216.18Z" transform="translate(-59.2 -39.48)"/><path d="M2997,1241.84h40.61a30.69,30.69,0,0,1,4.18,0c3.11.44,5.35,3.76,7.5,5.9,5.42,5.43,10.27,12.49,18.53,12.77,4.86.17,9.75,0,14.61,0,3.8,0,8.58-.8,12.3,0,1.95.43,3.09,2.13,4.42,3.46l7,7,12.65,12.65,26,26,12.65,12.65c1.56,1.56,8.37,6.25,4.28,8.54-1.08.6-3.5.16-4.62.16h-8.37c-1.63,0-3.75.36-5.35,0-2.11-.48-3.45-2.47-4.91-3.93l-7.22-7.21c-4.86-4.86-8.71-9.91-16-10.14-3.56-.11-7.14,0-10.7,0h-34.19c-3.12,0-7.14.7-10.2,0-1.94-.45-3.13-2.12-4.48-3.47l-7.06-7.07-14.13-14.12c-4.4-4.4-9-10.86-14.64-13.64-4.9-2.43-11.69-1.26-17-1.28-2.06,0-6.4.93-7.74-1.12s-.32-6.72-.33-9c0-3.25-2-17.77,2.17-18.14,6.36-.57,6.42-10.57,0-10-4.37.39-8.25,2.12-10.56,6.06-3,5.16-1.64,12.41-1.62,18.11,0,5.35-1.14,12,1.18,17,2.07,4.47,6.24,6.85,11,7.17,3.22.21,6.52,0,9.76,0,2.94,0,6.7-.69,9.35.68s5,5,7.06,7.06l7.77,7.77,13.42,13.42c4.12,4.12,8.12,9.7,14.29,10.5,9.2,1.2,19.14.14,28.41.14h18.7c3.13,0,7.13-.68,10.2,0,3.89.85,8,7,10.84,9.83,4,4,8,9.78,13.77,11.13,5,1.19,11,.32,16.11.32,6.14,0,12-.69,15.1-6.93,5.17-10.6-7.18-18.76-13.59-25.17l-28.82-28.81L3115.39,1266c-4.33-4.34-8.84-10.36-14.06-13.63-4.4-2.76-10.54-1.9-15.51-1.9-5.76,0-11.85.57-17.59,0-3.94-.38-6.52-4.52-9.21-7.21-4.31-4.31-8.65-10.49-15.11-11.32-4-.52-8.28-.14-12.33-.14H2997C2990.59,1231.84,2990.58,1241.84,2997,1241.84Z" transform="translate(-59.2 -39.48)"/><path d="M2819.78,1492l35.74-35.94-3.54,1.47c8.58,0,16.69,1.44,23.32-5,13.32-12.9,26.24-26.23,39.35-39.35l19.67-19.67c3.52-3.52,7.82-10.18,13-10.49,7.71-.45,15.53.13,23.26,0,4.84-.07,8.09-1.53,11.62-5,6.46-6.26,12.39-13.36,19.22-19.22,2.84-2.44,4.43-2,8-2h13.07c3.76,0,7.54-.09,11.3,0,2.24.06,3.69.15,4.09,2.77,1.07,7,0,15,0,22.14,0,6.41-1.43,15,2.68,20.45,5.2,6.9,12.62,12.82,18.73,18.93,4.64,4.64,10.23,8.46,16.9,5,3.29-1.71,5.84-5,8.42-7.55,3.08-3.08,6.39-6,9.29-9.29,2.69-3,3.52-6.26,3.58-10.16.12-7.79,0-15.6,0-23.4v-11.14c0-1.71-.53-4.67,1.75-5.16,2.55-.54,6.1,4.68,7.66,6.24l9.87,9.87,9.86,9.86c2.26,2.26,7,5.52,7.69,8.65.45,2,0,4.64,0,6.68v13c0,6.09-1.3,14,.73,19.92,1.41,4.08,5.66,7.35,8.62,10.31l16.54,16.55,32.8,32.79,2.08,2.08-1.46-3.53v100.48l1.47-3.53-17.31,17.31c-4.27,4.27-8.6,7.78-8.91,14.17-.32,6.67,0,13.43,0,20.11,0,2.18.23,4-2.41,4.57a20,20,0,0,1-3.87,0h-66.28c-2.94,0-7,.72-9.85,0-3.18-.79-6.32-5.39-8.59-7.66l-9.82-9.82-18.23-18.23L3031.62,1591l-8.41-8.41c-2.87-2.87-5.88-7.24-9.43-9.2-2.73-1.51-7.05-.68-10.07-.68h-53.89c-3.33,0-7.69-.8-10.58,1.07-3.2,2.09-6,5.86-8.68,8.57l-8.86,8.86c-1.28,1.29-2.3,2.42-4.1,2.69-2.28.34-4.89,0-7.18,0H2885.7c-6.06,0-11.95-.75-16.83,3.69-4.56,4.15-8.4,9.83-13.41,13.4-2.17,1.56-5.34.93-7.9.93s-7.89,1.13-9.09-1.65c-.51-1.17-.15-3-.15-4.23v-34.7c0-4.7.87-10.65-.73-15.19-1.07-3-3.44-5.13-5.64-7.34l-4.89-4.89c-1.44-1.44-3.9-3.12-4.89-4.89-1.63-2.92-.68-8-.7-11.34q0-6.89-.08-13.75-.07-12.77-.14-25.54c0-6.43-10-6.45-10,0l.15,26.52c0,8-1.06,16.84.36,24.66,1.35,7.49,9.82,12.3,14.51,17.7,2.05,2.35,2.05,3,2.05,5.84v43.71c0,7.82,3.48,14.62,12.26,15.09,6.91.38,16.21,1.34,21.67-3.57,4.6-4.13,8.37-9.52,13.27-13.27,3.37-2.59,10.1-1.18,14.09-1.18h26.1c3.37,0,6.53-.27,9.42-2.28,3.62-2.53,6.66-6.35,9.78-9.47l10.9-10.9-3.54,1.46h69l-3.54-1.46,63.81,63.8c5.27,5.28,9.15,9.77,16.82,9.89,4.38.07,8.78,0,13.17,0h59.32c3.15,0,6.66.35,9.7-.63,13.95-4.49,6.27-23.85,8.36-34,.41-2,1.94-3.06,3.31-4.44q4-4,8-8l6.66-6.66c2.18-2.18,5.61-4.48,6.62-7.53s.17-7.67.17-10.92v-83.16c0-4,.91-8.35-1.75-11.55-6.13-7.39-13.88-13.88-20.66-20.66l-29.08-29.08c-2.2-2.2-5.23-4.42-7-7s-.83-7.14-.83-10.11v-21.29c0-6.39-.2-11-5-16-5-5.28-10.34-10.34-15.5-15.5-5.34-5.35-10.49-11.56-16.39-16.27a12.3,12.3,0,0,0-19.69,6.91c-.95,4.35-.27,9.41-.27,13.81v20.67a52.46,52.46,0,0,1,0,6.27c-.51,4.1-5.82,7.53-8.61,10.32-1.9,1.9-4.25,5.31-6.64,6.63-3.07,1.71-5.24-2.11-7.24-4.11-5-5-10.62-9.69-15.09-15.09-3.32-4-2-9.83-2-14.9v-20.12c0-6.36-1.43-12.88-8.37-15.11-4.84-1.55-11.07-.63-16-.63-6,0-12.1-.15-18.15,0a14,14,0,0,0-8.52,2.68c-5.92,4.46-11,10.77-16.2,16-2.69,2.69-5.49,7-9.37,7.51a71,71,0,0,1-8.38,0c-5.68,0-11.44-.28-17.11,0-5.46.28-8.52,3.41-12.2,7.1l-16.16,16.16-32.33,32.32L2869.64,1444c-3.33,3.32-4.73,3.46-9,3.46-2.76,0-5.77-.36-8.51,0-5.17.66-10.18,8-13.71,11.6l-25.66,25.8C2808.17,1489.44,2815.24,1496.52,2819.78,1492Z" transform="translate(-59.2 -39.48)"/><path d="M3409.34,1611.47c3.06,0,6.9-.7,9.85,0,3.15.74,6.36,5.31,8.62,7.57l9.71,9.71,9.7,9.7c1.07,1.07,3.44,2.84,4.16,4.16,1.18,2.16.18,2.79-1.34,4.47-5.92,6.54-12.55,12.55-18.79,18.78l4.87-1.28L3405.65,1652l3.67,4.82v-23.07c0-3.78.09-7.57,0-11.35a17,17,0,0,0-.48-4.31c-.53-1.92-3.59-6.24.5-6.58,6.37-.54,6.42-10.55,0-10-8.12.68-14.29,7.9-11.54,16.17.6,1.81,1.39,3,1.52,4.9s0,3.93,0,5.88v28.36c0,2.43,1.6,4,3.67,4.82l30.47,12.62a4.89,4.89,0,0,0,4.86-1.28l12.08-12.08c3.54-3.54,8.48-7.1,10.54-11.76,4.43-10-6.07-17.15-12.19-23.27l-12.48-12.47c-3.5-3.51-7.14-8.47-11.67-10.66s-10.47-1.23-15.26-1.23C3402.91,1601.47,3402.9,1611.47,3409.34,1611.47Z" transform="translate(-59.2 -39.48)"/><path d="M3393.74,1689.92c3.88,3.88,8,7.63,11.7,11.7,1.41,1.56,2.42,2.38,1.3,4.43-1.37,2.52-4.87,4.87-6.88,6.89l-24.8,24.79-12.39,12.4c-2.36,2.36-3.78,4.42-6.58,2.06-3.8-3.21-7.15-7.15-10.67-10.67-2.08-2.08-3.22-3.54-1.06-6s4.71-4.66,7-7l24-23.67,11.22-11.07c1.52-1.5,4.67-6,7.13-3.94,4.9,4.1,12-2.94,7.07-7.07-11.34-9.48-20.48,3.17-28,10.6l-29.52,29.13c-2.26,2.23-4.68,4.39-6.83,6.74-5.55,6.07-4,13.41,1.43,18.79,3.93,3.93,7.72,8.11,11.84,11.84,11,9.94,21-3.68,28.29-11,11.47-11.47,23.2-22.74,34.44-34.44,4.12-4.29,6.64-9.73,3.62-15.54-1.44-2.76-4-4.84-6.15-7l-9.1-9.1C3396.25,1678.29,3389.18,1685.36,3393.74,1689.92Z" transform="translate(-59.2 -39.48)"/>
    </g>
</svg>